<?xml version="1.0" encoding="UTF-8" standalone="no"?>
<!DOCTYPE svg PUBLIC "-//W3C//DTD SVG 1.1//EN"
 "http://www.w3.org/Graphics/SVG/1.1/DTD/svg11.dtd">
<!-- Generated by graphviz version 2.43.0 (0)
 -->
<!-- Title: G Pages: 1 -->
<svg width="405pt" height="454pt"
 viewBox="0.00 0.00 405.38 454.00" xmlns="http://www.w3.org/2000/svg" xmlns:xlink="http://www.w3.org/1999/xlink">
<g id="graph0" class="graph" transform="scale(1 1) rotate(0) translate(4 450)">
<title>G</title>
<polygon fill="white" stroke="transparent" points="-4,4 -4,-450 401.38,-450 401.38,4 -4,4"/>
<g id="clust1" class="cluster">
<title>cluster_0</title>
<polygon fill="none" stroke="black" points="8,-8 8,-438 389.38,-438 389.38,-8 8,-8"/>
</g>
<!-- task_1 -->
<g id="node1" class="node">
<title>task_1</title>
<g id="a_node1"><a xlink:href="/home/guillaume/lib/composyx-private/usr/local/include/composyx/operator/MatrixMatrix.hpp#227" xlink:title="Map">
<ellipse fill="#41ab5d" stroke="black" cx="43.3" cy="-412" rx="27.1" ry="18"/>
<text text-anchor="middle" x="43.3" y="-408.3" font-family="Times,serif" font-size="14.00" fill="white">Map</text>
</a>
</g>
</g>
<!-- task_9 -->
<g id="node7" class="node">
<title>task_9</title>
<g id="a_node7"><a xlink:href="/home/guillaume/lib/composyx-private/usr/local/include/composyx/operator/MatrixMatrix.hpp#272" xlink:title="Reduce">
<ellipse fill="#41ab5d" stroke="black" cx="143.64" cy="-385" rx="37.09" ry="18"/>
<text text-anchor="middle" x="143.64" y="-381.3" font-family="Times,serif" font-size="14.00" fill="white">Reduce</text>
</a>
</g>
</g>
<!-- task_1&#45;&gt;task_9 -->
<g id="edge1" class="edge">
<title>task_1&#45;&gt;task_9</title>
<path fill="none" stroke="black" d="M68.86,-405.26C78.62,-402.58 90.12,-399.42 101.1,-396.41"/>
<polygon fill="black" stroke="black" points="102.25,-399.72 110.97,-393.7 100.4,-392.97 102.25,-399.72"/>
</g>
<!-- task_2 -->
<g id="node2" class="node">
<title>task_2</title>
<g id="a_node2"><a xlink:href="/home/guillaume/lib/composyx-private/usr/local/include/composyx/operator/MatrixMatrix.hpp#227" xlink:title="Map">
<ellipse fill="#74c476" stroke="black" cx="43.3" cy="-358" rx="27.1" ry="18"/>
<text text-anchor="middle" x="43.3" y="-354.3" font-family="Times,serif" font-size="14.00" fill="white">Map</text>
</a>
</g>
</g>
<!-- task_2&#45;&gt;task_9 -->
<g id="edge2" class="edge">
<title>task_2&#45;&gt;task_9</title>
<path fill="none" stroke="black" d="M68.86,-364.74C78.62,-367.42 90.12,-370.58 101.1,-373.59"/>
<polygon fill="black" stroke="black" points="100.4,-377.03 110.97,-376.3 102.25,-370.28 100.4,-377.03"/>
</g>
<!-- task_3 -->
<g id="node3" class="node">
<title>task_3</title>
<g id="a_node3"><a xlink:href="/home/guillaume/lib/composyx-private/usr/local/include/composyx/operator/MatrixMatrix.hpp#227" xlink:title="Map">
<ellipse fill="#a1d99b" stroke="black" cx="43.3" cy="-304" rx="27.1" ry="18"/>
<text text-anchor="middle" x="43.3" y="-300.3" font-family="Times,serif" font-size="14.00" fill="white">Map</text>
</a>
</g>
</g>
<!-- task_10 -->
<g id="node10" class="node">
<title>task_10</title>
<g id="a_node10"><a xlink:href="/home/guillaume/lib/composyx-private/usr/local/include/composyx/operator/MatrixMatrix.hpp#272" xlink:title="Reduce">
<ellipse fill="#74c476" stroke="black" cx="143.64" cy="-277" rx="37.09" ry="18"/>
<text text-anchor="middle" x="143.64" y="-273.3" font-family="Times,serif" font-size="14.00" fill="white">Reduce</text>
</a>
</g>
</g>
<!-- task_3&#45;&gt;task_10 -->
<g id="edge3" class="edge">
<title>task_3&#45;&gt;task_10</title>
<path fill="none" stroke="black" d="M68.86,-297.26C78.62,-294.58 90.12,-291.42 101.1,-288.41"/>
<polygon fill="black" stroke="black" points="102.25,-291.72 110.97,-285.7 100.4,-284.97 102.25,-291.72"/>
</g>
<!-- task_4 -->
<g id="node4" class="node">
<title>task_4</title>
<g id="a_node4"><a xlink:href="/home/guillaume/lib/composyx-private/usr/local/include/composyx/operator/MatrixMatrix.hpp#227" xlink:title="Map">
<ellipse fill="#238b45" stroke="black" cx="43.3" cy="-250" rx="27.1" ry="18"/>
<text text-anchor="middle" x="43.3" y="-246.3" font-family="Times,serif" font-size="14.00" fill="white">Map</text>
</a>
</g>
</g>
<!-- task_4&#45;&gt;task_10 -->
<g id="edge4" class="edge">
<title>task_4&#45;&gt;task_10</title>
<path fill="none" stroke="black" d="M68.86,-256.74C78.62,-259.42 90.12,-262.58 101.1,-265.59"/>
<polygon fill="black" stroke="black" points="100.4,-269.03 110.97,-268.3 102.25,-262.28 100.4,-269.03"/>
</g>
<!-- task_5 -->
<g id="node5" class="node">
<title>task_5</title>
<g id="a_node5"><a xlink:href="/home/guillaume/lib/composyx-private/usr/local/include/composyx/operator/MatrixMatrix.hpp#227" xlink:title="Map">
<ellipse fill="#41ab5d" stroke="black" cx="43.3" cy="-196" rx="27.1" ry="18"/>
<text text-anchor="middle" x="43.3" y="-192.3" font-family="Times,serif" font-size="14.00" fill="white">Map</text>
</a>
</g>
</g>
<!-- task_11 -->
<g id="node11" class="node">
<title>task_11</title>
<g id="a_node11"><a xlink:href="/home/guillaume/lib/composyx-private/usr/local/include/composyx/operator/MatrixMatrix.hpp#272" xlink:title="Reduce">
<ellipse fill="#238b45" stroke="black" cx="143.64" cy="-169" rx="37.09" ry="18"/>
<text text-anchor="middle" x="143.64" y="-165.3" font-family="Times,serif" font-size="14.00" fill="white">Reduce</text>
</a>
</g>
</g>
<!-- task_5&#45;&gt;task_11 -->
<g id="edge5" class="edge">
<title>task_5&#45;&gt;task_11</title>
<path fill="none" stroke="black" d="M68.86,-189.26C78.62,-186.58 90.12,-183.42 101.1,-180.41"/>
<polygon fill="black" stroke="black" points="102.25,-183.72 110.97,-177.7 100.4,-176.97 102.25,-183.72"/>
</g>
<!-- task_6 -->
<g id="node6" class="node">
<title>task_6</title>
<g id="a_node6"><a xlink:href="/home/guillaume/lib/composyx-private/usr/local/include/composyx/operator/MatrixMatrix.hpp#227" xlink:title="Map">
<ellipse fill="#74c476" stroke="black" cx="43.3" cy="-142" rx="27.1" ry="18"/>
<text text-anchor="middle" x="43.3" y="-138.3" font-family="Times,serif" font-size="14.00" fill="white">Map</text>
</a>
</g>
</g>
<!-- task_6&#45;&gt;task_11 -->
<g id="edge6" class="edge">
<title>task_6&#45;&gt;task_11</title>
<path fill="none" stroke="black" d="M68.86,-148.74C78.62,-151.42 90.12,-154.58 101.1,-157.59"/>
<polygon fill="black" stroke="black" points="100.4,-161.03 110.97,-160.3 102.25,-154.28 100.4,-161.03"/>
</g>
<!-- task_13 -->
<g id="node13" class="node">
<title>task_13</title>
<g id="a_node13"><a xlink:href="/home/guillaume/lib/composyx-private/usr/local/include/composyx/operator/MatrixMatrix.hpp#227" xlink:title="Map">
<ellipse fill="#41ab5d" stroke="black" cx="243.99" cy="-358" rx="27.1" ry="18"/>
<text text-anchor="middle" x="243.99" y="-354.3" font-family="Times,serif" font-size="14.00" fill="white">Map</text>
</a>
</g>
</g>
<!-- task_9&#45;&gt;task_13 -->
<g id="edge9" class="edge">
<title>task_9&#45;&gt;task_13</title>
<path fill="none" stroke="black" d="M176.3,-376.31C186.68,-373.46 198.26,-370.28 208.82,-367.38"/>
<polygon fill="black" stroke="black" points="209.85,-370.73 218.56,-364.71 207.99,-363.98 209.85,-370.73"/>
</g>
<!-- task_15 -->
<g id="node15" class="node">
<title>task_15</title>
<g id="a_node15"><a xlink:href="/home/guillaume/lib/composyx-private/usr/local/include/composyx/operator/MatrixMatrix.hpp#227" xlink:title="Map">
<ellipse fill="#a1d99b" stroke="black" cx="243.99" cy="-412" rx="27.1" ry="18"/>
<text text-anchor="middle" x="243.99" y="-408.3" font-family="Times,serif" font-size="14.00" fill="white">Map</text>
</a>
</g>
</g>
<!-- task_9&#45;&gt;task_15 -->
<g id="edge11" class="edge">
<title>task_9&#45;&gt;task_15</title>
<path fill="none" stroke="black" d="M176.3,-393.69C186.68,-396.54 198.26,-399.72 208.82,-402.62"/>
<polygon fill="black" stroke="black" points="207.99,-406.02 218.56,-405.29 209.85,-399.27 207.99,-406.02"/>
</g>
<!-- task_8 -->
<g id="node8" class="node">
<title>task_8</title>
<g id="a_node8"><a xlink:href="/home/guillaume/lib/composyx-private/usr/local/include/composyx/operator/MatrixMatrix.hpp#227" xlink:title="Map">
<ellipse fill="#238b45" stroke="black" cx="43.3" cy="-88" rx="27.1" ry="18"/>
<text text-anchor="middle" x="43.3" y="-84.3" font-family="Times,serif" font-size="14.00" fill="white">Map</text>
</a>
</g>
</g>
<!-- task_12 -->
<g id="node12" class="node">
<title>task_12</title>
<g id="a_node12"><a xlink:href="/home/guillaume/lib/composyx-private/usr/local/include/composyx/operator/MatrixMatrix.hpp#272" xlink:title="Reduce">
<ellipse fill="#a1d99b" stroke="black" cx="143.64" cy="-61" rx="37.09" ry="18"/>
<text text-anchor="middle" x="143.64" y="-57.3" font-family="Times,serif" font-size="14.00" fill="white">Reduce</text>
</a>
</g>
</g>
<!-- task_8&#45;&gt;task_12 -->
<g id="edge8" class="edge">
<title>task_8&#45;&gt;task_12</title>
<path fill="none" stroke="black" d="M68.86,-81.26C78.62,-78.58 90.12,-75.42 101.1,-72.41"/>
<polygon fill="black" stroke="black" points="102.25,-75.72 110.97,-69.7 100.4,-68.97 102.25,-75.72"/>
</g>
<!-- task_7 -->
<g id="node9" class="node">
<title>task_7</title>
<g id="a_node9"><a xlink:href="/home/guillaume/lib/composyx-private/usr/local/include/composyx/operator/MatrixMatrix.hpp#227" xlink:title="Map">
<ellipse fill="#a1d99b" stroke="black" cx="43.3" cy="-34" rx="27.1" ry="18"/>
<text text-anchor="middle" x="43.3" y="-30.3" font-family="Times,serif" font-size="14.00" fill="white">Map</text>
</a>
</g>
</g>
<!-- task_7&#45;&gt;task_12 -->
<g id="edge7" class="edge">
<title>task_7&#45;&gt;task_12</title>
<path fill="none" stroke="black" d="M68.86,-40.74C78.62,-43.42 90.12,-46.58 101.1,-49.59"/>
<polygon fill="black" stroke="black" points="100.4,-53.03 110.97,-52.3 102.25,-46.28 100.4,-53.03"/>
</g>
<!-- task_14 -->
<g id="node14" class="node">
<title>task_14</title>
<g id="a_node14"><a xlink:href="/home/guillaume/lib/composyx-private/usr/local/include/composyx/operator/MatrixMatrix.hpp#227" xlink:title="Map">
<ellipse fill="#74c476" stroke="black" cx="243.99" cy="-250" rx="27.1" ry="18"/>
<text text-anchor="middle" x="243.99" y="-246.3" font-family="Times,serif" font-size="14.00" fill="white">Map</text>
</a>
</g>
</g>
<!-- task_10&#45;&gt;task_14 -->
<g id="edge10" class="edge">
<title>task_10&#45;&gt;task_14</title>
<path fill="none" stroke="black" d="M176.3,-268.31C186.68,-265.46 198.26,-262.28 208.82,-259.38"/>
<polygon fill="black" stroke="black" points="209.85,-262.73 218.56,-256.71 207.99,-255.98 209.85,-262.73"/>
</g>
<!-- task_16 -->
<g id="node16" class="node">
<title>task_16</title>
<g id="a_node16"><a xlink:href="/home/guillaume/lib/composyx-private/usr/local/include/composyx/operator/MatrixMatrix.hpp#227" xlink:title="Map">
<ellipse fill="#41ab5d" stroke="black" cx="243.99" cy="-304" rx="27.1" ry="18"/>
<text text-anchor="middle" x="243.99" y="-300.3" font-family="Times,serif" font-size="14.00" fill="white">Map</text>
</a>
</g>
</g>
<!-- task_10&#45;&gt;task_16 -->
<g id="edge12" class="edge">
<title>task_10&#45;&gt;task_16</title>
<path fill="none" stroke="black" d="M176.3,-285.69C186.68,-288.54 198.26,-291.72 208.82,-294.62"/>
<polygon fill="black" stroke="black" points="207.99,-298.02 218.56,-297.29 209.85,-291.27 207.99,-298.02"/>
</g>
<!-- task_17 -->
<g id="node17" class="node">
<title>task_17</title>
<g id="a_node17"><a xlink:href="/home/guillaume/lib/composyx-private/usr/local/include/composyx/operator/MatrixMatrix.hpp#227" xlink:title="Map">
<ellipse fill="#238b45" stroke="black" cx="243.99" cy="-142" rx="27.1" ry="18"/>
<text text-anchor="middle" x="243.99" y="-138.3" font-family="Times,serif" font-size="14.00" fill="white">Map</text>
</a>
</g>
</g>
<!-- task_11&#45;&gt;task_17 -->
<g id="edge13" class="edge">
<title>task_11&#45;&gt;task_17</title>
<path fill="none" stroke="black" d="M176.3,-160.31C186.68,-157.46 198.26,-154.28 208.82,-151.38"/>
<polygon fill="black" stroke="black" points="209.85,-154.73 218.56,-148.71 207.99,-147.98 209.85,-154.73"/>
</g>
<!-- task_19 -->
<g id="node19" class="node">
<title>task_19</title>
<g id="a_node19"><a xlink:href="/home/guillaume/lib/composyx-private/usr/local/include/composyx/operator/MatrixMatrix.hpp#227" xlink:title="Map">
<ellipse fill="#a1d99b" stroke="black" cx="243.99" cy="-196" rx="27.1" ry="18"/>
<text text-anchor="middle" x="243.99" y="-192.3" font-family="Times,serif" font-size="14.00" fill="white">Map</text>
</a>
</g>
</g>
<!-- task_11&#45;&gt;task_19 -->
<g id="edge15" class="edge">
<title>task_11&#45;&gt;task_19</title>
<path fill="none" stroke="black" d="M176.3,-177.69C186.68,-180.54 198.26,-183.72 208.82,-186.62"/>
<polygon fill="black" stroke="black" points="207.99,-190.02 218.56,-189.29 209.85,-183.27 207.99,-190.02"/>
</g>
<!-- task_18 -->
<g id="node18" class="node">
<title>task_18</title>
<g id="a_node18"><a xlink:href="/home/guillaume/lib/composyx-private/usr/local/include/composyx/operator/MatrixMatrix.hpp#227" xlink:title="Map">
<ellipse fill="#74c476" stroke="black" cx="243.99" cy="-34" rx="27.1" ry="18"/>
<text text-anchor="middle" x="243.99" y="-30.3" font-family="Times,serif" font-size="14.00" fill="white">Map</text>
</a>
</g>
</g>
<!-- task_12&#45;&gt;task_18 -->
<g id="edge14" class="edge">
<title>task_12&#45;&gt;task_18</title>
<path fill="none" stroke="black" d="M176.3,-52.31C186.68,-49.46 198.26,-46.28 208.82,-43.38"/>
<polygon fill="black" stroke="black" points="209.85,-46.73 218.56,-40.71 207.99,-39.98 209.85,-46.73"/>
</g>
<!-- task_20 -->
<g id="node20" class="node">
<title>task_20</title>
<g id="a_node20"><a xlink:href="/home/guillaume/lib/composyx-private/usr/local/include/composyx/operator/MatrixMatrix.hpp#227" xlink:title="Map">
<ellipse fill="#238b45" stroke="black" cx="243.99" cy="-88" rx="27.1" ry="18"/>
<text text-anchor="middle" x="243.99" y="-84.3" font-family="Times,serif" font-size="14.00" fill="white">Map</text>
</a>
</g>
</g>
<!-- task_12&#45;&gt;task_20 -->
<g id="edge16" class="edge">
<title>task_12&#45;&gt;task_20</title>
<path fill="none" stroke="black" d="M176.3,-69.69C186.68,-72.54 198.26,-75.72 208.82,-78.62"/>
<polygon fill="black" stroke="black" points="207.99,-82.02 218.56,-81.29 209.85,-75.27 207.99,-82.02"/>
</g>
<!-- task_21 -->
<g id="node21" class="node">
<title>task_21</title>
<g id="a_node21"><a xlink:href="/home/guillaume/lib/composyx-private/usr/local/include/composyx/operator/MatrixMatrix.hpp#272" xlink:title="Reduce">
<ellipse fill="#41ab5d" stroke="black" cx="344.33" cy="-250" rx="37.09" ry="18"/>
<text text-anchor="middle" x="344.33" y="-246.3" font-family="Times,serif" font-size="14.00" fill="white">Reduce</text>
</a>
</g>
</g>
<!-- task_13&#45;&gt;task_21 -->
<g id="edge17" class="edge">
<title>task_13&#45;&gt;task_21</title>
<path fill="none" stroke="black" d="M259.85,-342.98C263.62,-339.11 267.63,-334.93 271.28,-331 288.65,-312.35 307.8,-290.77 321.99,-274.57"/>
<polygon fill="black" stroke="black" points="324.97,-276.47 328.92,-266.64 319.7,-271.87 324.97,-276.47"/>
</g>
<!-- task_14&#45;&gt;task_21 -->
<g id="edge18" class="edge">
<title>task_14&#45;&gt;task_21</title>
<path fill="none" stroke="black" d="M271.34,-250C279.19,-250 288.04,-250 296.78,-250"/>
<polygon fill="black" stroke="black" points="296.92,-253.5 306.92,-250 296.92,-246.5 296.92,-253.5"/>
</g>
<!-- task_22 -->
<g id="node22" class="node">
<title>task_22</title>
<g id="a_node22"><a xlink:href="/home/guillaume/lib/composyx-private/usr/local/include/composyx/operator/MatrixMatrix.hpp#272" xlink:title="Reduce">
<ellipse fill="#74c476" stroke="black" cx="344.33" cy="-358" rx="37.09" ry="18"/>
<text text-anchor="middle" x="344.33" y="-354.3" font-family="Times,serif" font-size="14.00" fill="white">Reduce</text>
</a>
</g>
</g>
<!-- task_15&#45;&gt;task_22 -->
<g id="edge19" class="edge">
<title>task_15&#45;&gt;task_22</title>
<path fill="none" stroke="black" d="M265.84,-400.55C278.73,-393.47 295.55,-384.23 310.23,-376.18"/>
<polygon fill="black" stroke="black" points="311.96,-379.22 319.04,-371.34 308.59,-373.08 311.96,-379.22"/>
</g>
<!-- task_16&#45;&gt;task_22 -->
<g id="edge20" class="edge">
<title>task_16&#45;&gt;task_22</title>
<path fill="none" stroke="black" d="M265.84,-315.45C278.73,-322.53 295.55,-331.77 310.23,-339.82"/>
<polygon fill="black" stroke="black" points="308.59,-342.92 319.04,-344.66 311.96,-336.78 308.59,-342.92"/>
</g>
<!-- task_23 -->
<g id="node23" class="node">
<title>task_23</title>
<g id="a_node23"><a xlink:href="/home/guillaume/lib/composyx-private/usr/local/include/composyx/operator/MatrixMatrix.hpp#272" xlink:title="Reduce">
<ellipse fill="#a1d99b" stroke="black" cx="344.33" cy="-88" rx="37.09" ry="18"/>
<text text-anchor="middle" x="344.33" y="-84.3" font-family="Times,serif" font-size="14.00" fill="white">Reduce</text>
</a>
</g>
</g>
<!-- task_17&#45;&gt;task_23 -->
<g id="edge21" class="edge">
<title>task_17&#45;&gt;task_23</title>
<path fill="none" stroke="black" d="M265.84,-130.55C278.73,-123.47 295.55,-114.23 310.23,-106.18"/>
<polygon fill="black" stroke="black" points="311.96,-109.22 319.04,-101.34 308.59,-103.08 311.96,-109.22"/>
</g>
<!-- task_18&#45;&gt;task_23 -->
<g id="edge22" class="edge">
<title>task_18&#45;&gt;task_23</title>
<path fill="none" stroke="black" d="M265.84,-45.45C278.73,-52.53 295.55,-61.77 310.23,-69.82"/>
<polygon fill="black" stroke="black" points="308.59,-72.92 319.04,-74.66 311.96,-66.78 308.59,-72.92"/>
</g>
<!-- task_24 -->
<g id="node24" class="node">
<title>task_24</title>
<g id="a_node24"><a xlink:href="/home/guillaume/lib/composyx-private/usr/local/include/composyx/operator/MatrixMatrix.hpp#272" xlink:title="Reduce">
<ellipse fill="#238b45" stroke="black" cx="344.33" cy="-196" rx="37.09" ry="18"/>
<text text-anchor="middle" x="344.33" y="-192.3" font-family="Times,serif" font-size="14.00" fill="white">Reduce</text>
</a>
</g>
</g>
<!-- task_19&#45;&gt;task_24 -->
<g id="edge23" class="edge">
<title>task_19&#45;&gt;task_24</title>
<path fill="none" stroke="black" d="M271.34,-196C279.19,-196 288.04,-196 296.78,-196"/>
<polygon fill="black" stroke="black" points="296.92,-199.5 306.92,-196 296.92,-192.5 296.92,-199.5"/>
</g>
<!-- task_20&#45;&gt;task_24 -->
<g id="edge24" class="edge">
<title>task_20&#45;&gt;task_24</title>
<path fill="none" stroke="black" d="M259.85,-103.02C263.62,-106.89 267.63,-111.07 271.28,-115 288.65,-133.65 307.8,-155.23 321.99,-171.43"/>
<polygon fill="black" stroke="black" points="319.7,-174.13 328.92,-179.36 324.97,-169.53 319.7,-174.13"/>
</g>
</g>
</svg>
